<svg xmlns="http://www.w3.org/2000/svg" viewBox="0 0 920 300" role="img" aria-label="Hub and spoke diagram template">
  <rect x="20" y="20" width="880" height="260" rx="24" fill="#fff"/>
  <defs><linearGradient id="hub" x1="0" y1="0" x2="1" y2="1"><stop stop-color="#7c3aed"/><stop offset="1" stop-color="#ec4899"/></linearGradient></defs>
  <circle cx="460" cy="150" r="64" fill="url(#hub)"/>
  <text x="460" y="145" text-anchor="middle" font-family="Hind, Arial" font-size="24" font-weight="700" fill="#fff">Main</text>
  <text x="460" y="170" text-anchor="middle" font-family="Hind, Arial" font-size="15" fill="#fce7f3">Concept</text>
  <line x1="460" y1="86" x2="460" y2="46" stroke="#7c3aed" stroke-width="4"/>
  <rect x="380" y="24" width="160" height="44" rx="14" fill="#eef2ff" stroke="#c7d2fe"/><text x="460" y="52" text-anchor="middle" font-family="Hind, Arial" font-size="18" font-weight="700" fill="#111827">Use 1</text>
  <line x1="517" y1="118" x2="604" y2="76" stroke="#ec4899" stroke-width="4"/>
  <rect x="604" y="50" width="180" height="44" rx="14" fill="#fff7ed" stroke="#fdba74"/><text x="694" y="78" text-anchor="middle" font-family="Hind, Arial" font-size="18" font-weight="700" fill="#111827">Use 2</text>
  <line x1="522" y1="184" x2="626" y2="220" stroke="#16a34a" stroke-width="4"/>
  <rect x="626" y="198" width="180" height="44" rx="14" fill="#ecfdf5" stroke="#86efac"/><text x="716" y="226" text-anchor="middle" font-family="Hind, Arial" font-size="18" font-weight="700" fill="#111827">Use 3</text>
  <line x1="401" y1="196" x2="292" y2="236" stroke="#2563eb" stroke-width="4"/>
  <rect x="118" y="214" width="174" height="44" rx="14" fill="#eff6ff" stroke="#93c5fd"/><text x="205" y="242" text-anchor="middle" font-family="Hind, Arial" font-size="18" font-weight="700" fill="#111827">Use 4</text>
</svg>