<svg xmlns="http://www.w3.org/2000/svg" viewBox="0 0 920 300" role="img" aria-label="Safety diagram template">
  <rect x="20" y="20" width="880" height="260" rx="24" fill="#fff"/>
  <defs><linearGradient id="s" x1="0" y1="0" x2="1" y2="1"><stop stop-color="#7c3aed"/><stop offset="1" stop-color="#ec4899"/></linearGradient></defs>
  <path d="M460 64 L592 112 V174 C592 215 556 246 460 270 C364 246 328 215 328 174 V112 Z" fill="#f3f4f6" stroke="#d1d5db" stroke-width="3"/>
  <path d="M460 90 L566 129 V171 C566 202 541 224 460 245 C379 224 354 202 354 171 V129 Z" fill="url(#s)"/>
  <text x="460" y="170" text-anchor="middle" font-family="Hind, Arial" font-size="34" font-weight="700" fill="#fff">SAFE</text>
  <rect x="64" y="85" width="190" height="54" rx="16" fill="#fee2e2" stroke="#fca5a5"/><text x="159" y="119" text-anchor="middle" font-family="Hind, Arial" font-size="18" font-weight="700" fill="#991b1b">Risk</text>
  <rect x="666" y="85" width="190" height="54" rx="16" fill="#dcfce7" stroke="#86efac"/><text x="761" y="119" text-anchor="middle" font-family="Hind, Arial" font-size="18" font-weight="700" fill="#166534">Protection</text>
</svg>